<svg width="1440" height="324" viewBox="0 0 1440 324" fill="none" xmlns="http://www.w3.org/2000/svg">
<path fill-rule="evenodd" clip-rule="evenodd" d="M0 212.5L39.6 218.694C80.4 224.889 159.6 237.278 240 218.694C320.4 200.111 399.6 150.556 480 131.972C560.4 113.389 639.6 125.778 720 138.167C800.4 150.556 879.6 162.944 960 175.333C1040.4 187.722 1119.6 200.111 1200 187.722C1280.4 175.333 1359.6 138.167 1400.4 119.583L1440 101V324H1400.4C1359.6 324 1280.4 324 1200 324C1119.6 324 1040.4 324 960 324C879.6 324 800.4 324 720 324C639.6 324 560.4 324 480 324C399.6 324 320.4 324 240 324C159.6 324 80.4 324 39.6 324H0V212.5Z" fill="#EEEEEE" fill-opacity="0.87"/>
<path fill-rule="evenodd" clip-rule="evenodd" d="M0 0L60 6C120 12 240 24 360 66C480 108 600 180 720 198C840 216 960 180 1080 156C1200 132 1320 120 1380 114L1440 108V324H1380C1320 324 1200 324 1080 324C960 324 840 324 720 324C600 324 480 324 360 324C240 324 120 324 60 324H0V0Z" fill="#4F8A8B" fill-opacity="0.63"/>
<path fill-rule="evenodd" clip-rule="evenodd" d="M0 251.945L34.8 245.941C68.4 239.936 136.8 227.927 205.2 209.913C274.8 191.899 343.2 167.881 411.6 161.877C480 155.872 548.4 167.881 616.8 155.872C685.2 143.863 754.8 107.836 823.2 83.8173C891.6 59.799 960 47.7898 1028.4 89.8218C1096.8 131.854 1165.2 227.927 1234.8 233.931C1303.2 239.936 1371.6 155.872 1405.2 113.84L1440 71.8081V324H1405.2C1371.6 324 1303.2 324 1234.8 324C1165.2 324 1096.8 324 1028.4 324C960 324 891.6 324 823.2 324C754.8 324 685.2 324 616.8 324C548.4 324 480 324 411.6 324C343.2 324 274.8 324 205.2 324C136.8 324 68.4 324 34.8 324H0V251.945Z" fill="#FBD46D" fill-opacity="0.6"/>
</svg>
