<svg width="1440" height="324" fill="none" xmlns="http://www.w3.org/2000/svg"><path fill-rule="evenodd" clip-rule="evenodd" d="M0 212.5l39.6 6.194c40.8 6.195 120 18.584 200.4 0 80.4-18.583 159.6-68.138 240-86.722 80.4-18.583 159.6-6.194 240 6.195s159.6 24.777 240 37.166c80.4 12.389 159.6 24.778 240 12.389s159.6-49.555 200.4-68.139L1440 101v223H0V212.5z" fill="#EEE" fill-opacity=".87"/><path fill-rule="evenodd" clip-rule="evenodd" d="M0 0l60 6c60 6 180 18 300 60s240 114 360 132 240-18 360-42 240-36 300-42l60-6v216H0V0z" fill="#4F8A8B" fill-opacity=".63"/><path fill-rule="evenodd" clip-rule="evenodd" d="M0 251.945l34.8-6.004c33.6-6.005 102-18.014 170.4-36.028 69.6-18.014 138-42.032 206.4-48.036 68.4-6.005 136.8 6.004 205.2-6.005 68.4-12.009 138-48.036 206.4-72.055C891.6 59.8 960 47.79 1028.4 89.822c68.4 42.032 136.8 138.105 206.4 144.109 68.4 6.005 136.8-78.059 170.4-120.091l34.8-42.032V324H0v-72.055z" fill="#FBD46D" fill-opacity=".6"/></svg>